<?xml version="1.0" encoding="iso-8859-1"?>
<!-- Uploaded to: SVG Repo, www.svgrepo.com, Generator: SVG Repo Mixer Tools -->
<svg version="1.1" id="Layer_1" xmlns="http://www.w3.org/2000/svg" xmlns:xlink="http://www.w3.org/1999/xlink" 
	 viewBox="0 0 512 512" xml:space="preserve">
<circle style="fill:#84DBFF;" cx="256" cy="255.999" r="255.999"/>
<path style="fill:#31BAFD;" d="M506.781,307.67l-193.89-193.89l-62.634,99.691L142.224,398.223L256.002,512
	C379.685,512,482.881,424.286,506.781,307.67z"/>
<polygon style="fill:#E15050;" points="312.89,369.778 142.224,398.223 142.224,142.223 312.89,113.779 "/>
<polygon style="fill:#D24146;" points="312.89,113.779 241.636,125.653 241.636,381.652 312.89,369.778 "/>
<rect x="142.223" y="142.222" style="fill:#FFFFFF;" width="199.11" height="255.999"/>
<rect x="241.64" y="142.222" style="fill:#E6F3FF;" width="99.698" height="255.999"/>
<path style="fill:#F1543F;" d="M303.049,291.017c0,33.838-27.431,61.269-61.269,61.269s-61.269-27.431-61.269-61.269
	c0-44.93,32.182-102.857,61.269-102.857C272.599,188.159,303.049,243.115,303.049,291.017z"/>
<path style="fill:#C1321F;" d="M241.78,188.159c-0.048,0-0.095,0.009-0.143,0.009v164.114c0.048,0,0.095,0.003,0.143,0.003
	c33.838,0,61.269-27.431,61.269-61.269C303.049,243.115,272.599,188.159,241.78,188.159z"/>
<path style="fill:#B5F1F4;" d="M295.355,246.847l-12.629,15.307l-20.478-24.828l-20.483,24.828l-20.48-24.828l-20.48,24.828
	l-12.047-14.607c-1.765,4.915-3.291,9.931-4.532,14.965l16.603,20.123l20.485-24.828l20.478,24.828l20.483-24.828l20.48,24.828
	l16.92-20.511C298.504,256.946,297.053,251.829,295.355,246.847z"/>
<g>
	<path style="fill:#FFD15D;" d="M303.049,291.017c0-1.403-0.029-2.813-0.079-4.229l-20.242,24.533l-20.478-24.828l-20.483,24.828
		l-20.48-24.828l-20.48,24.828l-20.204-24.493c-0.06,1.408-0.091,2.805-0.091,4.191c0,7.151,1.238,14.008,3.489,20.389l16.83,20.397
		l20.485-24.828l20.478,24.828l20.483-24.828l20.48,24.828l16.789-20.351C301.806,305.058,303.049,298.185,303.049,291.017z"/>
	<path style="fill:#FFD15D;" d="M258.307,193.204l-16.541,20.047l-16.182-19.616c-10.605,6.928-20.754,19.84-28.729,35.281
		l3.975,4.818l20.485-24.828l20.478,24.828l20.483-24.828l20.48,24.828l4.698-5.694C279.567,212.512,269.34,199.843,258.307,193.204
		z"/>
</g>
<path style="fill:#84DBFF;" d="M295.355,246.847l-12.629,15.307l-20.478-24.828l-20.483,24.828l-0.129-0.157v20.451l0.155,0.19
	l20.483-24.828l20.48,24.828l16.92-20.511C298.504,256.946,297.053,251.829,295.355,246.847z"/>
<g>
	<path style="fill:#F9B54C;" d="M302.968,286.788l-20.242,24.533l-20.478-24.828l-20.483,24.828l-0.129-0.157v20.451l0.155,0.19
		l20.483-24.828l20.48,24.828l16.789-20.351c2.262-6.392,3.505-13.267,3.505-20.435
		C303.049,289.613,303.019,288.202,302.968,286.788z"/>
	<path style="fill:#F9B54C;" d="M258.307,193.204l-16.541,20.047l-0.129-0.157v20.451l0.155,0.19l20.483-24.828l20.48,24.828
		l4.698-5.694C279.567,212.512,269.34,199.843,258.307,193.204z"/>
</g>
</svg>